<mxfile host="app.diagrams.net" modified="2023-12-13T09:44:31.930Z" agent="Mozilla/5.0 (Macintosh; Intel Mac OS X 10.15; rv:120.0) Gecko/20100101 Firefox/120.0" etag="GHLz5d4ttI1mX1e2oQ8p" version="22.1.8" type="github">
  <diagram name="Page-1" id="SIulgqLtBxGV47W7qyev">
    <mxGraphModel dx="2244" dy="1214" grid="1" gridSize="10" guides="1" tooltips="1" connect="1" arrows="1" fold="1" page="1" pageScale="1" pageWidth="827" pageHeight="1169" math="0" shadow="0">
      <root>
        <mxCell id="0" />
        <mxCell id="1" parent="0" />
        <mxCell id="TksDYWeNa5g1tYwS7Oo3-7" value="&lt;font style=&quot;font-size: 35px;&quot;&gt;&lt;b&gt;&lt;u&gt;&lt;font style=&quot;font-size: 35px;&quot;&gt;Hackacton 1:&lt;/font&gt;&lt;/u&gt;&lt;/b&gt; &lt;font style=&quot;font-size: 35px;&quot;&gt;Db UML&lt;/font&gt;&lt;/font&gt; " style="text;html=1;align=center;verticalAlign=middle;resizable=0;points=[];autosize=1;strokeColor=none;fillColor=none;" parent="1" vertex="1">
          <mxGeometry x="15" width="380" height="60" as="geometry" />
        </mxCell>
        <mxCell id="TksDYWeNa5g1tYwS7Oo3-8" value="&lt;b&gt;&lt;u&gt;&lt;font style=&quot;font-size: 34px;&quot;&gt;Hackacton 2:&lt;/font&gt;&lt;/u&gt;&lt;/b&gt;&lt;font style=&quot;font-size: 35px;&quot;&gt; &lt;font style=&quot;font-size: 35px;&quot;&gt;Db UML&lt;/font&gt;&lt;/font&gt;" style="text;html=1;align=center;verticalAlign=middle;resizable=0;points=[];autosize=1;strokeColor=none;fillColor=none;" parent="1" vertex="1">
          <mxGeometry y="970" width="370" height="60" as="geometry" />
        </mxCell>
        <mxCell id="TksDYWeNa5g1tYwS7Oo3-77" value="&lt;p style=&quot;margin: 4px 0px 0px; text-align: center; text-decoration: underline; font-size: 16px;&quot;&gt;&lt;font style=&quot;font-size: 16px;&quot;&gt;&lt;b&gt;Historic_fact&lt;/b&gt;&lt;br&gt;&lt;/font&gt;&lt;/p&gt;&lt;hr style=&quot;font-size: 16px;&quot;&gt;&lt;p style=&quot;margin: 0px 0px 0px 8px; font-size: 16px;&quot;&gt;&lt;font style=&quot;font-size: 16px;&quot;&gt;- ...&lt;/font&gt;&lt;/p&gt;&lt;p style=&quot;margin: 0px 0px 0px 8px; font-size: 16px;&quot;&gt;&lt;font style=&quot;font-size: 16px;&quot;&gt;- descdant ?&lt;/font&gt;&lt;br&gt;&lt;/p&gt;" style="verticalAlign=top;align=left;overflow=fill;fontSize=12;fontFamily=Helvetica;html=1;whiteSpace=wrap;" parent="1" vertex="1">
          <mxGeometry x="1120" y="1320" width="180" height="180" as="geometry" />
        </mxCell>
        <mxCell id="Q5hPO59WMxa0Q4W2aOUh-19" style="edgeStyle=orthogonalEdgeStyle;rounded=0;orthogonalLoop=1;jettySize=auto;html=1;entryX=0.5;entryY=0;entryDx=0;entryDy=0;endArrow=none;endFill=0;startArrow=open;startFill=0;" parent="1" source="Q5hPO59WMxa0Q4W2aOUh-20" target="Q5hPO59WMxa0Q4W2aOUh-31" edge="1">
          <mxGeometry relative="1" as="geometry" />
        </mxCell>
        <mxCell id="Q5hPO59WMxa0Q4W2aOUh-20" value="&lt;p style=&quot;margin: 4px 0px 0px; text-align: center; text-decoration: underline; font-size: 16px;&quot;&gt;&lt;font style=&quot;font-size: 16px;&quot;&gt;&lt;b&gt;Misc_fact&lt;br&gt;&lt;/b&gt;&lt;/font&gt;&lt;/p&gt;&lt;hr style=&quot;font-size: 16px;&quot;&gt;&lt;div style=&quot;font-size: 16px;&quot;&gt;&lt;font style=&quot;font-size: 16px;&quot;&gt;&amp;nbsp; - id (primary_key)&lt;br&gt;&lt;/font&gt;&lt;/div&gt;&lt;div style=&quot;font-size: 16px;&quot;&gt;&lt;font style=&quot;font-size: 16px;&quot;&gt;&amp;nbsp; - reference_PI (foreign_key)&lt;/font&gt;&lt;/div&gt;&lt;div style=&quot;font-size: 16px;&quot;&gt;&lt;font style=&quot;font-size: 16px;&quot;&gt;&amp;nbsp; - is_main&lt;/font&gt;&lt;/div&gt;&lt;div style=&quot;font-size: 16px;&quot;&gt;&lt;font style=&quot;font-size: 16px;&quot;&gt;&lt;br&gt;&lt;/font&gt;&lt;/div&gt;&lt;div style=&quot;font-size: 16px;&quot;&gt;&lt;font style=&quot;font-size: 16px;&quot;&gt;&lt;br&gt;&lt;/font&gt;&lt;/div&gt;&lt;div style=&quot;font-size: 16px;&quot;&gt;&lt;font style=&quot;font-size: 16px;&quot;&gt;&amp;nbsp; - fait&amp;nbsp; &lt;br&gt;&lt;/font&gt;&lt;/div&gt;&lt;div style=&quot;font-size: 16px;&quot;&gt;&lt;font style=&quot;font-size: 16px;&quot;&gt;&amp;nbsp; -date&lt;/font&gt;&lt;/div&gt;&lt;div style=&quot;font-size: 16px;&quot;&gt;&lt;font style=&quot;font-size: 16px;&quot;&gt;&amp;nbsp; -...&lt;font style=&quot;font-size: 16px;&quot;&gt;&lt;br&gt;&lt;/font&gt;&lt;/font&gt;&lt;/div&gt;" style="verticalAlign=top;align=left;overflow=fill;fontSize=12;fontFamily=Helvetica;html=1;whiteSpace=wrap;" parent="1" vertex="1">
          <mxGeometry x="840" y="1320" width="200" height="220" as="geometry" />
        </mxCell>
        <mxCell id="Q5hPO59WMxa0Q4W2aOUh-21" value="&lt;p style=&quot;margin: 4px 0px 0px; text-align: center; text-decoration: underline; font-size: 16px;&quot;&gt;&lt;font style=&quot;font-size: 16px;&quot;&gt;&lt;b&gt;point_of_interest&lt;/b&gt;&lt;br&gt;&lt;/font&gt;&lt;/p&gt;&lt;font style=&quot;font-size: 16px;&quot;&gt;&lt;br&gt;&lt;/font&gt;&lt;hr style=&quot;font-size: 16px;&quot;&gt;&lt;p style=&quot;margin: 0px 0px 0px 8px; font-size: 16px;&quot;&gt;&lt;font style=&quot;font-size: 16px;&quot;&gt;- id (primary_key)&lt;/font&gt;&lt;/p&gt;&lt;p style=&quot;margin: 0px 0px 0px 8px; font-size: 16px;&quot;&gt;&lt;font style=&quot;font-size: 16px;&quot;&gt;&lt;br&gt;&lt;/font&gt;&lt;/p&gt;&lt;p style=&quot;margin: 0px 0px 0px 8px; font-size: 16px;&quot;&gt;&lt;font style=&quot;font-size: 16px;&quot;&gt;&lt;br&gt;&lt;/font&gt;&lt;/p&gt;&lt;p style=&quot;margin: 0px 0px 0px 8px; font-size: 16px;&quot;&gt;&lt;font style=&quot;font-size: 16px;&quot;&gt;- adresse_forme_editoriale&lt;/font&gt;&lt;/p&gt;&lt;p style=&quot;margin: 0px 0px 0px 8px; font-size: 16px;&quot;&gt;&lt;font style=&quot;font-size: 16px;&quot;&gt;- coordonées { lon:&lt;/font&gt;&lt;/p&gt;&lt;p style=&quot;margin: 0px 0px 0px 8px; font-size: 16px;&quot;&gt;&lt;font style=&quot;font-size: 16px;&quot;&gt;&lt;span style=&quot;&quot;&gt;&lt;span style=&quot;&quot;&gt;&amp;nbsp;&amp;nbsp;&amp;nbsp;&amp;nbsp;&lt;/span&gt;&lt;/span&gt;&lt;span style=&quot;&quot;&gt;&lt;span style=&quot;&quot;&gt;&amp;nbsp;&amp;nbsp;&amp;nbsp;&amp;nbsp;&lt;/span&gt;&lt;/span&gt;&lt;span style=&quot;&quot;&gt;&lt;span style=&quot;&quot;&gt;&amp;nbsp;&amp;nbsp;&amp;nbsp;&amp;nbsp;&lt;/span&gt;&lt;/span&gt;lat: }&lt;/font&gt;&lt;/p&gt;&lt;p style=&quot;margin: 0px 0px 0px 8px; font-size: 16px;&quot;&gt;&lt;font style=&quot;font-size: 16px;&quot;&gt;&lt;br&gt;&lt;/font&gt;&lt;/p&gt;&lt;p style=&quot;margin: 0px 0px 0px 8px; font-size: 16px;&quot;&gt;&lt;font style=&quot;font-size: 16px;&quot;&gt;&lt;br&gt;&lt;/font&gt;&lt;/p&gt;&lt;p style=&quot;margin: 0px 0px 0px 8px; font-size: 16px;&quot;&gt;&lt;font style=&quot;font-size: 16px;&quot;&gt;&lt;br&gt;&lt;/font&gt;&lt;/p&gt;" style="verticalAlign=top;align=left;overflow=fill;fontSize=12;fontFamily=Helvetica;html=1;whiteSpace=wrap;" parent="1" vertex="1">
          <mxGeometry x="40" y="1080" width="210" height="200" as="geometry" />
        </mxCell>
        <mxCell id="Q5hPO59WMxa0Q4W2aOUh-22" style="edgeStyle=orthogonalEdgeStyle;rounded=0;orthogonalLoop=1;jettySize=auto;html=1;exitX=0.25;exitY=0;exitDx=0;exitDy=0;entryX=1;entryY=0.75;entryDx=0;entryDy=0;endArrow=open;endFill=0;startArrow=open;startFill=0;" parent="1" source="Q5hPO59WMxa0Q4W2aOUh-25" target="Q5hPO59WMxa0Q4W2aOUh-21" edge="1">
          <mxGeometry relative="1" as="geometry" />
        </mxCell>
        <mxCell id="Q5hPO59WMxa0Q4W2aOUh-23" value="Foreign key" style="edgeLabel;html=1;align=center;verticalAlign=middle;resizable=0;points=[];" parent="Q5hPO59WMxa0Q4W2aOUh-22" vertex="1" connectable="0">
          <mxGeometry x="0.0648" y="1" relative="1" as="geometry">
            <mxPoint x="19" y="9" as="offset" />
          </mxGeometry>
        </mxCell>
        <mxCell id="Q5hPO59WMxa0Q4W2aOUh-24" style="edgeStyle=orthogonalEdgeStyle;rounded=0;orthogonalLoop=1;jettySize=auto;html=1;entryX=0.5;entryY=0;entryDx=0;entryDy=0;endArrow=none;endFill=0;startArrow=open;startFill=0;" parent="1" source="Q5hPO59WMxa0Q4W2aOUh-25" target="Q5hPO59WMxa0Q4W2aOUh-29" edge="1">
          <mxGeometry relative="1" as="geometry" />
        </mxCell>
        <mxCell id="Q5hPO59WMxa0Q4W2aOUh-25" value="&lt;p style=&quot;margin: 4px 0px 0px; text-align: center; text-decoration: underline; font-size: 16px;&quot;&gt;&lt;font style=&quot;font-size: 16px;&quot;&gt;&lt;b&gt;Monument&lt;/b&gt;&lt;/font&gt;&lt;/p&gt;&lt;hr style=&quot;font-size: 16px;&quot;&gt;&lt;p style=&quot;margin: 0px 0px 0px 8px; font-size: 16px;&quot;&gt;&lt;font style=&quot;font-size: 16px;&quot;&gt;- id (primary_key)&lt;/font&gt;&lt;/p&gt;&lt;p style=&quot;margin: 0px 0px 0px 8px; font-size: 16px;&quot;&gt;&lt;font style=&quot;font-size: 16px;&quot;&gt;- poi_id (foreign_key)&lt;br&gt;&lt;/font&gt;&lt;/p&gt;&lt;p style=&quot;margin: 0px 0px 0px 8px; font-size: 16px;&quot;&gt;&lt;font style=&quot;font-size: 16px;&quot;&gt;&lt;br&gt;&lt;/font&gt;&lt;/p&gt;&lt;p style=&quot;margin: 0px 0px 0px 8px; font-size: 16px;&quot;&gt;&lt;font style=&quot;font-size: 16px;&quot;&gt;- name&lt;br&gt;&lt;/font&gt;&lt;/p&gt;&lt;p style=&quot;margin: 0px 0px 0px 8px; font-size: 16px;&quot;&gt;&lt;font style=&quot;font-size: 16px;&quot;&gt;- description(historique)&lt;br&gt;&lt;/font&gt;&lt;/p&gt;&lt;p style=&quot;margin: 0px 0px 0px 8px; font-size: 16px;&quot;&gt;&lt;font style=&quot;font-size: 16px;&quot;&gt;- auteur (datation_de _l&#39;édifice)&lt;/font&gt;&lt;/p&gt;&lt;p style=&quot;margin: 0px 0px 0px 8px; font-size: 16px;&quot;&gt;&lt;font style=&quot;font-size: 16px;&quot;&gt;- date (siecle_de _la_..._construction)&lt;/font&gt;&lt;/p&gt;&lt;p style=&quot;margin:0px;margin-left:8px;&quot;&gt;&lt;/p&gt;&lt;p style=&quot;margin:0px;margin-left:8px;&quot;&gt;&lt;/p&gt;" style="verticalAlign=top;align=left;overflow=fill;fontSize=12;fontFamily=Helvetica;html=1;whiteSpace=wrap;" parent="1" vertex="1">
          <mxGeometry x="280" y="1320" width="290" height="180" as="geometry" />
        </mxCell>
        <mxCell id="Q5hPO59WMxa0Q4W2aOUh-26" value="&lt;p style=&quot;margin: 4px 0px 0px; text-align: center; text-decoration: underline; font-size: 16px;&quot;&gt;&lt;font style=&quot;font-size: 16px;&quot;&gt;&lt;b&gt;Image&lt;/b&gt;&lt;/font&gt;&lt;/p&gt;&lt;hr style=&quot;font-size: 16px;&quot;&gt;&lt;p style=&quot;margin: 0px 0px 0px 8px; font-size: 16px;&quot;&gt;&lt;font style=&quot;font-size: 16px;&quot;&gt;- id (primary key)&lt;/font&gt;&lt;/p&gt;&lt;font style=&quot;font-size: 16px;&quot;&gt;&lt;br&gt;&lt;/font&gt;&lt;p style=&quot;margin: 0px 0px 0px 8px; font-size: 16px;&quot;&gt;&lt;font style=&quot;font-size: 16px;&quot;&gt;- url&lt;/font&gt;&lt;/p&gt;&lt;p style=&quot;margin: 0px 0px 0px 8px; font-size: 16px;&quot;&gt;&lt;font style=&quot;font-size: 16px;&quot;&gt;- auteur (autop)&lt;/font&gt;&lt;/p&gt;&lt;p style=&quot;margin: 0px 0px 0px 8px; font-size: 16px;&quot;&gt;&lt;font style=&quot;font-size: 16px;&quot;&gt;- decripttion (leg)&lt;/font&gt;&lt;/p&gt;&lt;p style=&quot;margin: 0px 0px 0px 8px; font-size: 16px;&quot;&gt;&lt;font style=&quot;font-size: 16px;&quot;&gt;- name (edif)&lt;font style=&quot;font-size: 16px;&quot;&gt;&lt;br&gt;&lt;/font&gt;&lt;/font&gt;&lt;/p&gt;" style="verticalAlign=top;align=left;overflow=fill;fontSize=12;fontFamily=Helvetica;html=1;whiteSpace=wrap;" parent="1" vertex="1">
          <mxGeometry x="760" y="1770" width="170" height="170" as="geometry" />
        </mxCell>
        <mxCell id="Q5hPO59WMxa0Q4W2aOUh-27" style="edgeStyle=orthogonalEdgeStyle;rounded=0;orthogonalLoop=1;jettySize=auto;html=1;endArrow=open;endFill=0;" parent="1" source="Q5hPO59WMxa0Q4W2aOUh-20" target="Q5hPO59WMxa0Q4W2aOUh-21" edge="1">
          <mxGeometry relative="1" as="geometry">
            <mxPoint x="255" y="1210" as="targetPoint" />
            <Array as="points">
              <mxPoint x="605" y="1210" />
            </Array>
          </mxGeometry>
        </mxCell>
        <mxCell id="Q5hPO59WMxa0Q4W2aOUh-28" style="edgeStyle=orthogonalEdgeStyle;rounded=0;orthogonalLoop=1;jettySize=auto;html=1;entryX=0;entryY=0.75;entryDx=0;entryDy=0;exitX=0.5;exitY=1;exitDx=0;exitDy=0;endArrow=open;endFill=0;" parent="1" source="Q5hPO59WMxa0Q4W2aOUh-29" target="Q5hPO59WMxa0Q4W2aOUh-26" edge="1">
          <mxGeometry relative="1" as="geometry">
            <mxPoint x="335" y="1680" as="sourcePoint" />
          </mxGeometry>
        </mxCell>
        <mxCell id="Q5hPO59WMxa0Q4W2aOUh-29" value="&lt;p style=&quot;margin: 4px 0px 0px; text-align: center; text-decoration: underline; font-size: 16px;&quot;&gt;&lt;font style=&quot;font-size: 16px;&quot;&gt;&lt;b&gt;monument_image&lt;/b&gt;&lt;br&gt;&lt;/font&gt;&lt;/p&gt;&lt;hr style=&quot;font-size: 16px;&quot;&gt;&lt;p style=&quot;margin: 0px 0px 0px 8px; font-size: 16px;&quot;&gt;&lt;font style=&quot;font-size: 16px;&quot;&gt;- id (auto_inc)&lt;/font&gt;&lt;/p&gt;&lt;p style=&quot;margin: 0px 0px 0px 8px; font-size: 16px;&quot;&gt;&lt;font style=&quot;font-size: 16px;&quot;&gt;- image_id&lt;/font&gt;&lt;/p&gt;&lt;p style=&quot;margin: 0px 0px 0px 8px; font-size: 16px;&quot;&gt;&lt;font style=&quot;font-size: 16px;&quot;&gt;- monument_id&lt;br&gt;&lt;/font&gt;&lt;/p&gt;&lt;p style=&quot;margin: 0px 0px 0px 8px; font-size: 16px;&quot;&gt;&lt;font style=&quot;font-size: 16px;&quot;&gt;&lt;br&gt;&lt;/font&gt;&lt;/p&gt;&lt;p style=&quot;margin: 0px 0px 0px 8px; font-size: 16px;&quot;&gt;&lt;font style=&quot;font-size: 16px;&quot;&gt;&lt;br&gt;&lt;/font&gt;&lt;/p&gt;" style="verticalAlign=top;align=left;overflow=fill;fontSize=12;fontFamily=Helvetica;html=1;whiteSpace=wrap;" parent="1" vertex="1">
          <mxGeometry x="280" y="1600" width="220" height="100" as="geometry" />
        </mxCell>
        <mxCell id="Q5hPO59WMxa0Q4W2aOUh-30" style="edgeStyle=orthogonalEdgeStyle;rounded=0;orthogonalLoop=1;jettySize=auto;html=1;entryX=0;entryY=0.5;entryDx=0;entryDy=0;exitX=0.5;exitY=1;exitDx=0;exitDy=0;endArrow=open;endFill=0;" parent="1" source="Q5hPO59WMxa0Q4W2aOUh-31" target="Q5hPO59WMxa0Q4W2aOUh-26" edge="1">
          <mxGeometry relative="1" as="geometry">
            <mxPoint x="640" y="1700" as="sourcePoint" />
          </mxGeometry>
        </mxCell>
        <mxCell id="Q5hPO59WMxa0Q4W2aOUh-31" value="&lt;p style=&quot;margin:0px;margin-top:4px;text-align:center;text-decoration:underline;&quot;&gt;&lt;b&gt;misc_fact_image&lt;/b&gt;&lt;/p&gt;&lt;hr&gt;&lt;hr style=&quot;font-size: 16px;&quot;&gt;&lt;p style=&quot;margin: 0px 0px 0px 8px; font-size: 16px;&quot;&gt;&lt;font style=&quot;font-size: 16px;&quot;&gt;- id (auto_inc)&lt;/font&gt;&lt;/p&gt;&lt;p style=&quot;margin: 0px 0px 0px 8px; font-size: 16px;&quot;&gt;&lt;font style=&quot;font-size: 16px;&quot;&gt;- image_id&lt;/font&gt;&lt;/p&gt;&lt;p style=&quot;margin: 0px 0px 0px 8px; font-size: 16px;&quot;&gt;&lt;font style=&quot;font-size: 16px;&quot;&gt;- misc_fact_id&lt;br&gt;&lt;/font&gt;&lt;/p&gt;&lt;br&gt;&lt;p style=&quot;margin:0px;margin-left:8px;&quot;&gt;&lt;/p&gt;" style="verticalAlign=top;align=left;overflow=fill;fontSize=12;fontFamily=Helvetica;html=1;whiteSpace=wrap;" parent="1" vertex="1">
          <mxGeometry x="850" y="1600" width="160" height="110" as="geometry" />
        </mxCell>
        <mxCell id="Q5hPO59WMxa0Q4W2aOUh-33" style="edgeStyle=orthogonalEdgeStyle;rounded=0;orthogonalLoop=1;jettySize=auto;html=1;entryX=0.5;entryY=0;entryDx=0;entryDy=0;endArrow=none;endFill=0;startArrow=open;startFill=0;" parent="1" source="Q5hPO59WMxa0Q4W2aOUh-34" target="Q5hPO59WMxa0Q4W2aOUh-46" edge="1">
          <mxGeometry relative="1" as="geometry" />
        </mxCell>
        <mxCell id="Q5hPO59WMxa0Q4W2aOUh-34" value="&lt;p style=&quot;margin: 4px 0px 0px; text-align: center; text-decoration: underline; font-size: 16px;&quot;&gt;&lt;font style=&quot;font-size: 16px;&quot;&gt;&lt;b&gt;Misc_fact&lt;br&gt;&lt;/b&gt;&lt;/font&gt;&lt;/p&gt;&lt;hr style=&quot;font-size: 16px;&quot;&gt;&lt;div style=&quot;font-size: 16px;&quot;&gt;&lt;font style=&quot;font-size: 16px;&quot;&gt;&amp;nbsp; - id (primary_key)&lt;br&gt;&lt;/font&gt;&lt;/div&gt;&lt;div style=&quot;font-size: 16px;&quot;&gt;&lt;font style=&quot;font-size: 16px;&quot;&gt;&amp;nbsp; - reference_PI (foreign_key)&lt;/font&gt;&lt;/div&gt;&lt;div style=&quot;font-size: 16px;&quot;&gt;&lt;font style=&quot;font-size: 16px;&quot;&gt;&amp;nbsp; - is_main&lt;/font&gt;&lt;/div&gt;&lt;div style=&quot;font-size: 16px;&quot;&gt;&lt;font style=&quot;font-size: 16px;&quot;&gt;&lt;br&gt;&lt;/font&gt;&lt;/div&gt;&lt;div style=&quot;font-size: 16px;&quot;&gt;&lt;font style=&quot;font-size: 16px;&quot;&gt;&lt;br&gt;&lt;/font&gt;&lt;/div&gt;&lt;div style=&quot;font-size: 16px;&quot;&gt;&lt;font style=&quot;font-size: 16px;&quot;&gt;&amp;nbsp; - fait&amp;nbsp; &lt;br&gt;&lt;/font&gt;&lt;/div&gt;&lt;div style=&quot;font-size: 16px;&quot;&gt;&lt;font style=&quot;font-size: 16px;&quot;&gt;&amp;nbsp; -date&lt;/font&gt;&lt;/div&gt;&lt;div style=&quot;font-size: 16px;&quot;&gt;&lt;font style=&quot;font-size: 16px;&quot;&gt;&amp;nbsp; -...&lt;font style=&quot;font-size: 16px;&quot;&gt;&lt;br&gt;&lt;/font&gt;&lt;/font&gt;&lt;/div&gt;" style="verticalAlign=top;align=left;overflow=fill;fontSize=12;fontFamily=Helvetica;html=1;whiteSpace=wrap;" parent="1" vertex="1">
          <mxGeometry x="600" y="320" width="160" height="220" as="geometry" />
        </mxCell>
        <mxCell id="Q5hPO59WMxa0Q4W2aOUh-35" value="&lt;p style=&quot;margin: 4px 0px 0px; text-align: center; text-decoration: underline; font-size: 16px;&quot;&gt;&lt;font style=&quot;font-size: 16px;&quot;&gt;&lt;b&gt;point_of_interest&lt;/b&gt;&lt;br&gt;&lt;/font&gt;&lt;/p&gt;&lt;font style=&quot;font-size: 16px;&quot;&gt;&lt;br&gt;&lt;/font&gt;&lt;hr style=&quot;font-size: 16px;&quot;&gt;&lt;p style=&quot;margin: 0px 0px 0px 8px; font-size: 16px;&quot;&gt;&lt;font style=&quot;font-size: 16px;&quot;&gt;- id (primary_key)&lt;/font&gt;&lt;/p&gt;&lt;p style=&quot;margin: 0px 0px 0px 8px; font-size: 16px;&quot;&gt;&lt;font style=&quot;font-size: 16px;&quot;&gt;&lt;br&gt;&lt;/font&gt;&lt;/p&gt;&lt;p style=&quot;margin: 0px 0px 0px 8px; font-size: 16px;&quot;&gt;&lt;font style=&quot;font-size: 16px;&quot;&gt;&lt;br&gt;&lt;/font&gt;&lt;/p&gt;&lt;p style=&quot;margin: 0px 0px 0px 8px; font-size: 16px;&quot;&gt;&lt;font style=&quot;font-size: 16px;&quot;&gt;- adresse_forme_editoriale&lt;/font&gt;&lt;/p&gt;&lt;p style=&quot;margin: 0px 0px 0px 8px; font-size: 16px;&quot;&gt;&lt;font style=&quot;font-size: 16px;&quot;&gt;- coordonées { lon:&lt;/font&gt;&lt;/p&gt;&lt;p style=&quot;margin: 0px 0px 0px 8px; font-size: 16px;&quot;&gt;&lt;font style=&quot;font-size: 16px;&quot;&gt;&lt;span style=&quot;&quot;&gt;&lt;span style=&quot;&quot;&gt;&amp;nbsp;&amp;nbsp;&amp;nbsp;&amp;nbsp;&lt;/span&gt;&lt;/span&gt;&lt;span style=&quot;&quot;&gt;&lt;span style=&quot;&quot;&gt;&amp;nbsp;&amp;nbsp;&amp;nbsp;&amp;nbsp;&lt;/span&gt;&lt;/span&gt;&lt;span style=&quot;&quot;&gt;&lt;span style=&quot;&quot;&gt;&amp;nbsp;&amp;nbsp;&amp;nbsp;&amp;nbsp;&lt;/span&gt;&lt;/span&gt;lat: }&lt;/font&gt;&lt;/p&gt;&lt;p style=&quot;margin: 0px 0px 0px 8px; font-size: 16px;&quot;&gt;&lt;font style=&quot;font-size: 16px;&quot;&gt;&lt;br&gt;&lt;/font&gt;&lt;/p&gt;&lt;p style=&quot;margin: 0px 0px 0px 8px; font-size: 16px;&quot;&gt;&lt;font style=&quot;font-size: 16px;&quot;&gt;&lt;br&gt;&lt;/font&gt;&lt;/p&gt;&lt;p style=&quot;margin: 0px 0px 0px 8px; font-size: 16px;&quot;&gt;&lt;font style=&quot;font-size: 16px;&quot;&gt;&lt;br&gt;&lt;/font&gt;&lt;/p&gt;" style="verticalAlign=top;align=left;overflow=fill;fontSize=12;fontFamily=Helvetica;html=1;whiteSpace=wrap;" parent="1" vertex="1">
          <mxGeometry x="40" y="80" width="210" height="200" as="geometry" />
        </mxCell>
        <mxCell id="Q5hPO59WMxa0Q4W2aOUh-36" style="edgeStyle=orthogonalEdgeStyle;rounded=0;orthogonalLoop=1;jettySize=auto;html=1;exitX=0.25;exitY=0;exitDx=0;exitDy=0;entryX=1;entryY=0.75;entryDx=0;entryDy=0;endArrow=open;endFill=0;startArrow=open;startFill=0;" parent="1" source="Q5hPO59WMxa0Q4W2aOUh-39" target="Q5hPO59WMxa0Q4W2aOUh-35" edge="1">
          <mxGeometry relative="1" as="geometry" />
        </mxCell>
        <mxCell id="Q5hPO59WMxa0Q4W2aOUh-37" value="Foreign key" style="edgeLabel;html=1;align=center;verticalAlign=middle;resizable=0;points=[];" parent="Q5hPO59WMxa0Q4W2aOUh-36" vertex="1" connectable="0">
          <mxGeometry x="0.0648" y="1" relative="1" as="geometry">
            <mxPoint x="19" y="9" as="offset" />
          </mxGeometry>
        </mxCell>
        <mxCell id="Q5hPO59WMxa0Q4W2aOUh-38" style="edgeStyle=orthogonalEdgeStyle;rounded=0;orthogonalLoop=1;jettySize=auto;html=1;entryX=0.5;entryY=0;entryDx=0;entryDy=0;endArrow=none;endFill=0;startArrow=open;startFill=0;" parent="1" source="Q5hPO59WMxa0Q4W2aOUh-39" target="Q5hPO59WMxa0Q4W2aOUh-43" edge="1">
          <mxGeometry relative="1" as="geometry" />
        </mxCell>
        <mxCell id="Q5hPO59WMxa0Q4W2aOUh-39" value="&lt;p style=&quot;margin: 4px 0px 0px; text-align: center; text-decoration: underline; font-size: 16px;&quot;&gt;&lt;font style=&quot;font-size: 16px;&quot;&gt;&lt;b&gt;Monument&lt;/b&gt;&lt;/font&gt;&lt;/p&gt;&lt;hr style=&quot;font-size: 16px;&quot;&gt;&lt;p style=&quot;margin: 0px 0px 0px 8px; font-size: 16px;&quot;&gt;&lt;font style=&quot;font-size: 16px;&quot;&gt;- id (primary_key)&lt;br&gt;&lt;/font&gt;&lt;/p&gt;&lt;p style=&quot;margin: 0px 0px 0px 8px; font-size: 16px;&quot;&gt;&lt;font style=&quot;font-size: 16px;&quot;&gt;&lt;br&gt;&lt;/font&gt;&lt;/p&gt;&lt;p style=&quot;margin: 0px 0px 0px 8px; font-size: 16px;&quot;&gt;&lt;font style=&quot;font-size: 16px;&quot;&gt;- name&lt;br&gt;&lt;/font&gt;&lt;/p&gt;&lt;p style=&quot;margin: 0px 0px 0px 8px; font-size: 16px;&quot;&gt;&lt;font style=&quot;font-size: 16px;&quot;&gt;- description(historique)&lt;br&gt;&lt;/font&gt;&lt;/p&gt;&lt;p style=&quot;margin: 0px 0px 0px 8px; font-size: 16px;&quot;&gt;&lt;font style=&quot;font-size: 16px;&quot;&gt;- auteur (datation_de _l&#39;édifice)&lt;/font&gt;&lt;/p&gt;&lt;p style=&quot;margin: 0px 0px 0px 8px; font-size: 16px;&quot;&gt;&lt;font style=&quot;font-size: 16px;&quot;&gt;- date (siecle_de _la_..._construction)&lt;/font&gt;&lt;/p&gt;&lt;p style=&quot;margin:0px;margin-left:8px;&quot;&gt;&lt;/p&gt;&lt;p style=&quot;margin:0px;margin-left:8px;&quot;&gt;&lt;/p&gt;" style="verticalAlign=top;align=left;overflow=fill;fontSize=12;fontFamily=Helvetica;html=1;whiteSpace=wrap;" parent="1" vertex="1">
          <mxGeometry x="280" y="320" width="290" height="170" as="geometry" />
        </mxCell>
        <mxCell id="Q5hPO59WMxa0Q4W2aOUh-40" value="&lt;p style=&quot;margin: 4px 0px 0px; text-align: center; text-decoration: underline; font-size: 16px;&quot;&gt;&lt;font style=&quot;font-size: 16px;&quot;&gt;&lt;b&gt;Image&lt;/b&gt;&lt;/font&gt;&lt;/p&gt;&lt;hr style=&quot;font-size: 16px;&quot;&gt;&lt;p style=&quot;margin: 0px 0px 0px 8px; font-size: 16px;&quot;&gt;&lt;font style=&quot;font-size: 16px;&quot;&gt;- id (primary key)&lt;/font&gt;&lt;/p&gt;&lt;font style=&quot;font-size: 16px;&quot;&gt;&lt;br&gt;&lt;/font&gt;&lt;p style=&quot;margin: 0px 0px 0px 8px; font-size: 16px;&quot;&gt;&lt;font style=&quot;font-size: 16px;&quot;&gt;- url&lt;/font&gt;&lt;/p&gt;&lt;p style=&quot;margin: 0px 0px 0px 8px; font-size: 16px;&quot;&gt;&lt;font style=&quot;font-size: 16px;&quot;&gt;- auteur (autop)&lt;/font&gt;&lt;/p&gt;&lt;p style=&quot;margin: 0px 0px 0px 8px; font-size: 16px;&quot;&gt;&lt;font style=&quot;font-size: 16px;&quot;&gt;- decripttion (leg)&lt;/font&gt;&lt;/p&gt;&lt;p style=&quot;margin: 0px 0px 0px 8px; font-size: 16px;&quot;&gt;&lt;font style=&quot;font-size: 16px;&quot;&gt;- name (edif)&lt;font style=&quot;font-size: 16px;&quot;&gt;&lt;br&gt;&lt;/font&gt;&lt;/font&gt;&lt;/p&gt;" style="verticalAlign=top;align=left;overflow=fill;fontSize=12;fontFamily=Helvetica;html=1;whiteSpace=wrap;" parent="1" vertex="1">
          <mxGeometry x="760" y="770" width="170" height="170" as="geometry" />
        </mxCell>
        <mxCell id="Q5hPO59WMxa0Q4W2aOUh-41" style="edgeStyle=orthogonalEdgeStyle;rounded=0;orthogonalLoop=1;jettySize=auto;html=1;endArrow=open;endFill=0;" parent="1" source="Q5hPO59WMxa0Q4W2aOUh-34" target="Q5hPO59WMxa0Q4W2aOUh-35" edge="1">
          <mxGeometry relative="1" as="geometry">
            <mxPoint x="255" y="210" as="targetPoint" />
            <Array as="points">
              <mxPoint x="605" y="210" />
            </Array>
          </mxGeometry>
        </mxCell>
        <mxCell id="Q5hPO59WMxa0Q4W2aOUh-42" style="edgeStyle=orthogonalEdgeStyle;rounded=0;orthogonalLoop=1;jettySize=auto;html=1;entryX=0;entryY=0.75;entryDx=0;entryDy=0;exitX=0.5;exitY=1;exitDx=0;exitDy=0;endArrow=open;endFill=0;" parent="1" source="Q5hPO59WMxa0Q4W2aOUh-43" target="Q5hPO59WMxa0Q4W2aOUh-40" edge="1">
          <mxGeometry relative="1" as="geometry">
            <mxPoint x="335" y="680" as="sourcePoint" />
          </mxGeometry>
        </mxCell>
        <mxCell id="Q5hPO59WMxa0Q4W2aOUh-43" value="&lt;p style=&quot;margin: 4px 0px 0px; text-align: center; text-decoration: underline; font-size: 16px;&quot;&gt;&lt;font style=&quot;font-size: 16px;&quot;&gt;&lt;b&gt;monument_image&lt;/b&gt;&lt;br&gt;&lt;/font&gt;&lt;/p&gt;&lt;hr style=&quot;font-size: 16px;&quot;&gt;&lt;p style=&quot;margin: 0px 0px 0px 8px; font-size: 16px;&quot;&gt;&lt;font style=&quot;font-size: 16px;&quot;&gt;- id (auto_inc)&lt;/font&gt;&lt;/p&gt;&lt;p style=&quot;margin: 0px 0px 0px 8px; font-size: 16px;&quot;&gt;&lt;font style=&quot;font-size: 16px;&quot;&gt;- image_id&lt;/font&gt;&lt;/p&gt;&lt;p style=&quot;margin: 0px 0px 0px 8px; font-size: 16px;&quot;&gt;&lt;font style=&quot;font-size: 16px;&quot;&gt;- monument_id&lt;br&gt;&lt;/font&gt;&lt;/p&gt;&lt;p style=&quot;margin: 0px 0px 0px 8px; font-size: 16px;&quot;&gt;&lt;font style=&quot;font-size: 16px;&quot;&gt;&lt;br&gt;&lt;/font&gt;&lt;/p&gt;&lt;p style=&quot;margin: 0px 0px 0px 8px; font-size: 16px;&quot;&gt;&lt;font style=&quot;font-size: 16px;&quot;&gt;&lt;br&gt;&lt;/font&gt;&lt;/p&gt;" style="verticalAlign=top;align=left;overflow=fill;fontSize=12;fontFamily=Helvetica;html=1;whiteSpace=wrap;" parent="1" vertex="1">
          <mxGeometry x="280" y="600" width="220" height="100" as="geometry" />
        </mxCell>
        <mxCell id="Q5hPO59WMxa0Q4W2aOUh-44" style="edgeStyle=orthogonalEdgeStyle;rounded=0;orthogonalLoop=1;jettySize=auto;html=1;entryX=0;entryY=0.5;entryDx=0;entryDy=0;exitX=0.5;exitY=1;exitDx=0;exitDy=0;endArrow=open;endFill=0;" parent="1" source="Q5hPO59WMxa0Q4W2aOUh-46" target="Q5hPO59WMxa0Q4W2aOUh-40" edge="1">
          <mxGeometry relative="1" as="geometry">
            <mxPoint x="640" y="700" as="sourcePoint" />
          </mxGeometry>
        </mxCell>
        <mxCell id="Q5hPO59WMxa0Q4W2aOUh-45" style="edgeStyle=orthogonalEdgeStyle;rounded=0;orthogonalLoop=1;jettySize=auto;html=1;exitX=0.5;exitY=1;exitDx=0;exitDy=0;" parent="1" source="Q5hPO59WMxa0Q4W2aOUh-46" edge="1">
          <mxGeometry relative="1" as="geometry">
            <mxPoint x="679.9090909090905" y="710" as="targetPoint" />
          </mxGeometry>
        </mxCell>
        <mxCell id="Q5hPO59WMxa0Q4W2aOUh-46" value="&lt;p style=&quot;margin:0px;margin-top:4px;text-align:center;text-decoration:underline;&quot;&gt;&lt;b&gt;misc_fact_image&lt;/b&gt;&lt;/p&gt;&lt;hr&gt;&lt;hr style=&quot;font-size: 16px;&quot;&gt;&lt;p style=&quot;margin: 0px 0px 0px 8px; font-size: 16px;&quot;&gt;&lt;font style=&quot;font-size: 16px;&quot;&gt;- id (auto_inc)&lt;/font&gt;&lt;/p&gt;&lt;p style=&quot;margin: 0px 0px 0px 8px; font-size: 16px;&quot;&gt;&lt;font style=&quot;font-size: 16px;&quot;&gt;- image_id&lt;/font&gt;&lt;/p&gt;&lt;p style=&quot;margin: 0px 0px 0px 8px; font-size: 16px;&quot;&gt;&lt;font style=&quot;font-size: 16px;&quot;&gt;- misc_fact_id&lt;br&gt;&lt;/font&gt;&lt;/p&gt;&lt;br&gt;&lt;p style=&quot;margin:0px;margin-left:8px;&quot;&gt;&lt;/p&gt;" style="verticalAlign=top;align=left;overflow=fill;fontSize=12;fontFamily=Helvetica;html=1;whiteSpace=wrap;" parent="1" vertex="1">
          <mxGeometry x="600" y="600" width="160" height="110" as="geometry" />
        </mxCell>
        <mxCell id="6GiPtao53rehQjj56jaO-1" value="&lt;p style=&quot;margin: 4px 0px 0px; text-align: center; text-decoration: underline; font-size: 16px;&quot;&gt;&lt;font style=&quot;font-size: 16px;&quot;&gt;&lt;b&gt;Urser&lt;br&gt;&lt;/b&gt;&lt;/font&gt;&lt;/p&gt;&lt;hr style=&quot;font-size: 16px;&quot;&gt;&lt;p style=&quot;margin: 0px 0px 0px 8px; font-size: 16px;&quot;&gt;&lt;font style=&quot;font-size: 16px;&quot;&gt;- work in progress&lt;br&gt;&lt;/font&gt;&lt;/p&gt;&lt;p style=&quot;margin: 0px 0px 0px 8px; font-size: 16px;&quot;&gt;&lt;br&gt;&lt;/p&gt;" style="verticalAlign=top;align=left;overflow=fill;fontSize=12;fontFamily=Helvetica;html=1;whiteSpace=wrap;" vertex="1" parent="1">
          <mxGeometry x="840" y="1100" width="180" height="180" as="geometry" />
        </mxCell>
      </root>
    </mxGraphModel>
  </diagram>
</mxfile>
